# xmcd
#
# Track frame offsets:
#	150
#	16565
#	30842
#	50652
#	63933
#	77066
#	87612
#	113091
#	125641
#	149707
#	175407
#	194178
#	211174
#	228384
#	260610
#
# Disc length: 4120 seconds
#
# Revision: 0
# Processed by: cddbd v1.5.2PL0 Copyright (c) Steve Scherf et al.
# Submitted via: EZCDAudioConverter 2.1.7.1
#
DISCID=d610160f
DTITLE=V/A - Johnny Marr and Friends
DYEAR=2012
DGENRE=MOJO
TTITLE0=Johnny Marr - The Right Thing Right
TTITLE1=The Cribs - We Share The Same Skies
TTITLE2=Johnny Marr and The Healers - The Last Ride
TTITLE3=Edwyn Collins - Come Tomorrow Come Today
TTITLE4=Sandie Shaw - Hand In Glove
TTITLE5=Billy Bragg - Walk Away Renee
TTITLE6=Modest Mouse - Dramamine
TTITLE7=The The - The Evening Star
TTITLE8=Transit Kings - America Is Unavailable
TTITLE9=Kirsty MacColl - Walking Down Madison
TTITLE10=Lisa Germano - Into Oblivion
TTITLE11=Beth Orton - Call Me The Breeze
TTITLE12=Robyn Hitchcock - Ordinary Millionaire
TTITLE13=John Frusciante - Central
TTITLE14=Durutti Column - Chant
EXTD=
EXTT0=
EXTT1=
EXTT2=
EXTT3=
EXTT4=
EXTT5=
EXTT6=
EXTT7=
EXTT8=
EXTT9=
EXTT10=
EXTT11=
EXTT12=
EXTT13=
EXTT14=
PLAYORDER=
